<svg xmlns:mydata="http://www.w3.org/2000/svg" version="1.1" xmlns="http://www.w3.org/2000/svg" xmlns:xlink="http://www.w3.org/1999/xlink" style="height: 756px" viewBox="0 0 550 470">
          <g fill="#3d3935" fill-rule="nonzero" stroke="none" stroke-width="1" stroke-linecap="butt" stroke-linejoin="miter" stroke-miterlimit="10" stroke-dasharray="" stroke-dashoffset="0" font-family="none" font-weight="none" font-size="none" text-anchor="none" style="mix-blend-mode: normal">
            <g>
              <g id="element-id-58541">
                <path d="M65,246.74602c0,0.86451 0.6014,1.4659 1.4659,1.4659h3.30768c0.33829,0 0.75175,-0.07517 1.05244,-0.41346c0.33829,-0.33829 0.41346,-0.75175 0.41346,-1.05244v-15.44836l9.81027,15.937c0.37587,0.63898 0.90209,0.97727 1.57866,0.97727h2.96939c0.71416,0 1.24038,-0.33829 1.61625,-0.97727l9.81027,-15.937v15.44836c0,0.3007 0.07517,0.71416 0.41346,1.05244c0.3007,0.33829 0.71416,0.41346 1.05244,0.41346h3.30768c0.33829,0 0.75175,-0.07517 1.05244,-0.41346c0.33829,-0.33829 0.41346,-0.75175 0.41346,-1.05244v-23.37927c0,-0.3007 -0.07517,-0.71416 -0.41346,-1.05244c-0.3007,-0.33829 -0.71416,-0.41346 -1.05244,-0.41346h-5.03669c-0.3007,0 -0.56381,0.07517 -0.82692,0.22552c-0.41346,0.18794 -0.6014,0.48863 -0.71416,0.75175l-11.08824,17.96671l-11.08824,-17.96671c-0.11276,-0.26311 -0.3007,-0.56381 -0.71416,-0.75175c-0.26311,-0.15035 -0.52622,-0.22552 -0.78933,-0.22552h-5.07428c-0.86451,0 -1.4659,0.6014 -1.4659,1.4659z" data-paper-data="{&quot;glyphName&quot;:&quot;m&quot;,&quot;glyphIndex&quot;:0,&quot;firstGlyphOfWord&quot;:true,&quot;word&quot;:1}" id="element-id-1358"></path>
                <path d="M109.2402,221.90084c-0.86451,0 -1.4659,0.6014 -1.4659,1.4659v23.37927c0,0.86451 0.6014,1.4659 1.4659,1.4659h3.30768c0.33829,0 0.75175,-0.07517 1.05244,-0.41346c0.33829,-0.33829 0.41346,-0.75175 0.41346,-1.05244v-23.37927c0,-0.3007 -0.07517,-0.71416 -0.41346,-1.05244c-0.3007,-0.33829 -0.71416,-0.41346 -1.05244,-0.41346z" data-paper-data="{&quot;glyphName&quot;:&quot;i&quot;,&quot;glyphIndex&quot;:1,&quot;word&quot;:1}" id="element-id-10685"></path>
                <path d="M125.92894,221.78808c-4.84876,0 -7.40469,2.40558 -7.40469,7.25434v12.06551c0,4.84876 2.70628,7.25434 7.40469,7.25434h18.68087c3.90907,0 6.5026,-1.69143 7.10399,-5.6005c0,-0.11276 -0.07517,-0.15035 -0.18794,-0.15035h-24.65724c-0.93968,0 -1.42832,-0.22552 -1.69143,-0.48863c-0.26311,-0.18794 -0.41346,-0.67657 -0.41346,-1.39073v-11.35135c0,-0.71416 0.15035,-1.20279 0.41346,-1.39073c0.26311,-0.26311 0.75175,-0.45105 1.69143,-0.45105h24.65724c0.18794,0 0.22552,-0.07517 0.15035,-0.18794c-0.6014,-3.90907 -3.15733,-5.56291 -7.0664,-5.56291z" data-paper-data="{&quot;glyphName&quot;:&quot;c&quot;,&quot;glyphIndex&quot;:2,&quot;word&quot;:1}" id="element-id-51142"></path>
                <path d="M156.29945,246.74602c0,0.86451 0.6014,1.4659 1.4659,1.4659h3.30768c0.33829,0 0.75175,-0.07517 1.05244,-0.41346c0.33829,-0.33829 0.41346,-0.75175 0.41346,-1.05244v-8.83301h19.43261v8.83301c0,0.86451 0.6014,1.4659 1.4659,1.4659h3.30768c0.86451,0 1.50349,-0.56381 1.50349,-1.4659v-23.37927c0,-0.33829 -0.15035,-0.71416 -0.41346,-1.05244c-0.33829,-0.3007 -0.75175,-0.41346 -1.09003,-0.41346h-3.30768c-0.86451,0 -1.4659,0.6014 -1.4659,1.4659v8.83301h-19.43261v-8.83301c0,-0.3007 -0.07517,-0.71416 -0.41346,-1.05244c-0.3007,-0.33829 -0.71416,-0.41346 -1.05244,-0.41346h-3.30768c-0.86451,0 -1.4659,0.6014 -1.4659,1.4659z" data-paper-data="{&quot;glyphName&quot;:&quot;h&quot;,&quot;glyphIndex&quot;:3,&quot;word&quot;:1}" id="element-id-39480"></path>
                <path d="M190.87972,246.85878c0,0.48863 0.18794,0.86451 0.6014,1.1652c0.3007,0.11276 0.56381,0.18794 0.78933,0.18794h3.87149c0.15035,0 0.41346,-0.07517 0.78933,-0.18794c0.41346,-0.26311 0.63898,-0.56381 0.78933,-0.82692l2.0673,-3.15733l3.60838,-5.67568l6.01396,-9.28405c0.11276,-0.11276 0.18794,-0.11276 0.3007,0l9.65992,14.95973l1.27797,1.91695l0.78933,1.24038c0.11276,0.18794 0.33829,0.56381 0.78933,0.82692c0.18794,0.11276 0.45105,0.18794 0.75175,0.18794h3.87149c0.22552,0 0.48863,-0.07517 0.78933,-0.18794c0.41346,-0.3007 0.6014,-0.67657 0.6014,-1.1652c-0.03759,-0.26311 -0.11276,-0.52622 -0.26311,-0.75175l-15.0349,-23.19134c-0.33829,-0.6014 -0.86451,-1.01486 -1.57866,-1.01486h-3.60838c-0.3007,0 -0.56381,0.07517 -0.78933,0.22552c-0.41346,0.26311 -0.63898,0.56381 -0.75175,0.75175l-15.07249,23.19134c-0.11276,0.26311 -0.26311,0.48863 -0.26311,0.78933z" data-paper-data="{&quot;glyphName&quot;:&quot;a&quot;,&quot;glyphIndex&quot;:4,&quot;word&quot;:1}" id="element-id-70124"></path>
                <path d="M230.87256,246.7836c0,0.3007 0.11276,0.71416 0.41346,1.01486c0.03759,0.11276 0.11276,0.11276 0.15035,0.15035c0.26311,0.18794 0.56381,0.26311 0.90209,0.26311h27.40111c0.3007,0 0.67657,-0.03759 0.97727,-0.3007l0.11276,-0.11276c0.3007,-0.33829 0.37587,-0.75175 0.37587,-1.05244v-2.81904c0,-0.22552 0,-0.37587 -0.03759,-0.41346c-0.11276,-0.71416 -0.78933,-1.05244 -1.42832,-1.05244h-27.4387c-0.48863,0 -0.75175,0.15035 -1.09003,0.48863c-0.18794,0.26311 -0.3007,0.56381 -0.3007,0.90209c-0.03759,0.03759 -0.03759,0.18794 -0.03759,0.45105zM230.91015,223.25398c0,0.15035 -0.03759,0.3007 -0.03759,0.45105v2.51835c0,0.3007 0.07517,0.71416 0.41346,1.05244c0.11276,0.03759 0.07517,0.07517 0.18794,0.11276c0.26311,0.26311 0.6014,0.26311 0.86451,0.26311h27.25076c0.3007,0 0.71416,-0.07517 1.05244,-0.37587c0.33829,-0.33829 0.41346,-0.75175 0.41346,-1.09003v-2.81904c0,-0.03759 -0.03759,-0.15035 -0.07517,-0.41346c-0.11276,-0.48863 -0.3007,-0.63898 -0.71416,-0.90209c-0.18794,-0.11276 -0.41346,-0.15035 -0.67657,-0.15035h-27.06282c-0.3007,-0.03759 -0.75175,0.03759 -1.09003,0.33829l-0.18794,0.15035c-0.26311,0.26311 -0.3007,0.6014 -0.33829,0.86451zM230.87256,236.71022c0.03759,0.33829 0.18794,0.6014 0.41346,0.78933c0.03759,0.11276 0.11276,0.11276 0.15035,0.15035c0.3007,0.26311 0.63898,0.26311 0.90209,0.26311h0.45105h26.42384c0.90209,0 1.4659,-0.56381 1.4659,-1.4659v-2.78146c0,-0.22552 0,-0.37587 -0.03759,-0.41346c-0.03759,-0.26311 -0.26311,-0.67657 -0.52622,-0.78933c-0.26311,-0.26311 -0.6014,-0.26311 -0.86451,-0.26311h-26.64936c-0.33829,-0.03759 -0.78933,0 -1.12762,0.3007l-0.18794,0.15035c-0.22552,0.26311 -0.33829,0.56381 -0.33829,0.82692l-0.07517,0.45105z" data-paper-data="{&quot;glyphName&quot;:&quot;e&quot;,&quot;glyphIndex&quot;:5,&quot;word&quot;:1}" id="element-id-26790"></path>
                <path d="M265.71595,240.95758c0,4.69841 2.55593,7.25434 7.25434,7.25434h23.04099c0.3007,0 0.71416,-0.07517 1.05244,-0.41346c0.3007,-0.33829 0.41346,-0.75175 0.41346,-1.05244v-2.81904c0,-0.86451 -0.6014,-1.4659 -1.4659,-1.4659h-22.13889c-0.90209,0 -1.24038,-0.18794 -1.50349,-0.37587c-0.18794,-0.18794 -0.37587,-0.6014 -0.37587,-1.4659v-17.25255c0,-0.3007 -0.07517,-0.71416 -0.41346,-1.05244c-0.3007,-0.33829 -0.71416,-0.41346 -1.05244,-0.41346h-3.30768c-0.33829,0 -0.75175,0.11276 -1.09003,0.41346c-0.26311,0.33829 -0.41346,0.71416 -0.41346,1.05244z" data-paper-data="{&quot;glyphName&quot;:&quot;l&quot;,&quot;glyphIndex&quot;:6,&quot;lastGlyphOfWord&quot;:true,&quot;word&quot;:1}" id="element-id-82173"></path>
                </g>
            </g>
          </g>
        </svg>