<svg xmlns:mydata="http://www.w3.org/2000/svg" version="1.1" xmlns="http://www.w3.org/2000/svg" xmlns:xlink="http://www.w3.org/1999/xlink" style="height: 756px" viewBox="0 0 550 470">
          <g fill="#3d3935" fill-rule="nonzero" stroke="none" stroke-width="1" stroke-linecap="butt" stroke-linejoin="miter" stroke-miterlimit="10" stroke-dasharray="" stroke-dashoffset="0" font-family="none" font-weight="none" font-size="none" text-anchor="none" style="mix-blend-mode: normal">
            <g>
              <g  id="element-id-58541">
                <path d="M318.48846,246.74602c0,0.86451 0.6014,1.4659 1.4659,1.4659h3.30768c0.33829,0 0.75175,-0.07517 1.05244,-0.41346c0.33829,-0.33829 0.41346,-0.75175 0.41346,-1.05244v-8.83301h19.43261v8.83301c0,0.86451 0.6014,1.4659 1.4659,1.4659h3.30768c0.86451,0 1.50349,-0.56381 1.50349,-1.4659v-23.37927c0,-0.33829 -0.15035,-0.71416 -0.41346,-1.05244c-0.33829,-0.3007 -0.75175,-0.41346 -1.09003,-0.41346h-3.30768c-0.86451,0 -1.4659,0.6014 -1.4659,1.4659v8.83301h-19.43261v-8.83301c0,-0.3007 -0.07517,-0.71416 -0.41346,-1.05244c-0.3007,-0.33829 -0.71416,-0.41346 -1.05244,-0.41346h-3.30768c-0.86451,0 -1.4659,0.6014 -1.4659,1.4659z" data-paper-data="{&quot;glyphName&quot;:&quot;h&quot;,&quot;glyphIndex&quot;:7,&quot;firstGlyphOfWord&quot;:true,&quot;word&quot;:2}" id="element-id-4725"></path>
                <path d="M353.06873,246.85878c0,0.48863 0.18794,0.86451 0.6014,1.1652c0.3007,0.11276 0.56381,0.18794 0.78933,0.18794h3.87149c0.15035,0 0.41346,-0.07517 0.78933,-0.18794c0.41346,-0.26311 0.63898,-0.56381 0.78933,-0.82692l2.0673,-3.15733l3.60838,-5.67568l6.01396,-9.28405c0.11276,-0.11276 0.18794,-0.11276 0.3007,0l9.65992,14.95973l1.27797,1.91695l0.78933,1.24038c0.11276,0.18794 0.33829,0.56381 0.78933,0.82692c0.18794,0.11276 0.45105,0.18794 0.75175,0.18794h3.87149c0.22552,0 0.48863,-0.07517 0.78933,-0.18794c0.41346,-0.3007 0.6014,-0.67657 0.6014,-1.1652c-0.03759,-0.26311 -0.11276,-0.52622 -0.26311,-0.75175l-15.0349,-23.19134c-0.33829,-0.6014 -0.86451,-1.01486 -1.57866,-1.01486h-3.60838c-0.3007,0 -0.56381,0.07517 -0.78933,0.22552c-0.41346,0.26311 -0.63898,0.56381 -0.75175,0.75175l-15.07249,23.19134c-0.11276,0.26311 -0.26311,0.48863 -0.26311,0.78933z" data-paper-data="{&quot;glyphName&quot;:&quot;a&quot;,&quot;glyphIndex&quot;:8,&quot;word&quot;:2}" id="element-id-4360"></path>
                <path d="M381.71022,222.69017c-0.11276,0.26311 -0.11276,0.48863 -0.03759,0.67657c0.03759,0.33829 0.22552,0.56381 0.41346,0.75175c0.03759,0 3.19492,3.5332 6.5026,7.02882l6.54018,7.0664v8.53231c0,0.86451 0.6014,1.4659 1.4659,1.4659h3.2325c0.33829,0 0.75175,-0.07517 1.05244,-0.41346c0.33829,-0.33829 0.41346,-0.75175 0.41346,-1.05244v-8.53231l13.11795,-14.13281c0.15035,-0.15035 0.33829,-0.37587 0.37587,-0.71416c0.07517,-0.18794 0.07517,-0.41346 -0.03759,-0.67657c-0.11276,-0.26311 -0.3007,-0.41346 -0.45105,-0.52622c-0.26311,-0.18794 -0.52622,-0.26311 -0.86451,-0.26311h-3.87149c-0.86451,0 -1.31555,0.48863 -1.61625,0.78933l-1.50349,1.65384l-3.34527,3.60838l-4.84876,5.22463l-9.7351,-10.44926c-0.33829,-0.33829 -0.78933,-0.82692 -1.65384,-0.82692h-3.87149c-0.56381,0 -1.09003,0.3007 -1.27797,0.78933z" data-paper-data="{&quot;glyphName&quot;:&quot;y&quot;,&quot;glyphIndex&quot;:9,&quot;word&quot;:2}" id="element-id-66005"></path>
                <path d="M417.53088,246.7836c0,0.3007 0.11276,0.71416 0.41346,1.01486c0.03759,0.11276 0.11276,0.11276 0.15035,0.15035c0.26311,0.18794 0.56381,0.26311 0.90209,0.26311h27.40111c0.3007,0 0.67657,-0.03759 0.97727,-0.3007l0.11276,-0.11276c0.3007,-0.33829 0.37587,-0.75175 0.37587,-1.05244v-2.81904c0,-0.22552 0,-0.37587 -0.03759,-0.41346c-0.11276,-0.71416 -0.78933,-1.05244 -1.42832,-1.05244h-27.4387c-0.48863,0 -0.75175,0.15035 -1.09003,0.48863c-0.18794,0.26311 -0.3007,0.56381 -0.3007,0.90209c-0.03759,0.03759 -0.03759,0.18794 -0.03759,0.45105zM417.56846,223.25398c0,0.15035 -0.03759,0.3007 -0.03759,0.45105v2.51835c0,0.3007 0.07517,0.71416 0.41346,1.05244c0.11276,0.03759 0.07517,0.07517 0.18794,0.11276c0.26311,0.26311 0.6014,0.26311 0.86451,0.26311h27.25076c0.3007,0 0.71416,-0.07517 1.05244,-0.37587c0.33829,-0.33829 0.41346,-0.75175 0.41346,-1.09003v-2.81904c0,-0.03759 -0.03759,-0.15035 -0.07517,-0.41346c-0.11276,-0.48863 -0.3007,-0.63898 -0.71416,-0.90209c-0.18794,-0.11276 -0.41346,-0.15035 -0.67657,-0.15035h-27.06282c-0.3007,-0.03759 -0.75175,0.03759 -1.09003,0.33829l-0.18794,0.15035c-0.26311,0.26311 -0.3007,0.6014 -0.33829,0.86451zM417.53088,236.71022c0.03759,0.33829 0.18794,0.6014 0.41346,0.78933c0.03759,0.11276 0.11276,0.11276 0.15035,0.15035c0.3007,0.26311 0.63898,0.26311 0.90209,0.26311h0.45105h26.42384c0.90209,0 1.4659,-0.56381 1.4659,-1.4659v-2.78146c0,-0.22552 0,-0.37587 -0.03759,-0.41346c-0.03759,-0.26311 -0.26311,-0.67657 -0.52622,-0.78933c-0.26311,-0.26311 -0.6014,-0.26311 -0.86451,-0.26311h-26.64936c-0.33829,-0.03759 -0.78933,0 -1.12762,0.3007l-0.18794,0.15035c-0.22552,0.26311 -0.33829,0.56381 -0.33829,0.82692l-0.07517,0.45105z" data-paper-data="{&quot;glyphName&quot;:&quot;e&quot;,&quot;glyphIndex&quot;:10,&quot;word&quot;:2}" id="element-id-32272"></path>
                <path d="M460.60587,221.63773c-5.14945,0 -8.23161,2.25524 -8.23161,7.63021c0,5.26222 3.08216,7.63021 8.15643,7.93091l15.82423,0.90209c1.1652,0.03759 1.69143,0.33829 1.99212,0.63898c0.3007,0.33829 0.45105,0.90209 0.45105,1.69143c0,1.65384 -0.71416,2.02971 -2.33041,2.02971c-3.30768,0.03759 -6.35225,0.03759 -9.35923,0.03759c-4.99911,0 -10.67478,0.03759 -13.19313,0.03759h-1.39073c-0.11276,0.03759 -0.15035,0.07517 -0.15035,0.18794c0.11276,3.04457 2.59352,5.48774 5.63809,5.48774h18.75604c5.22463,0 8.23161,-2.25524 8.23161,-7.6678c0,-5.22463 -3.15733,-7.63021 -8.15643,-7.89332l-15.82423,-0.90209c-1.1652,-0.11276 -1.69143,-0.33829 -1.99212,-0.67657c-0.33829,-0.33829 -0.48863,-0.86451 -0.48863,-1.65384c0,-0.86451 0.18794,-1.27797 0.45105,-1.54108c0.26311,-0.26311 0.82692,-0.48863 1.87936,-0.48863h23.98067c0.11276,0 0.15035,-0.03759 0.15035,-0.15035v-0.03759c0,-3.11974 -2.44317,-5.56291 -5.56291,-5.56291z" data-paper-data="{&quot;glyphName&quot;:&quot;s&quot;,&quot;glyphIndex&quot;:11,&quot;lastGlyphOfWord&quot;:true,&quot;word&quot;:2}" id="element-id-17592"></path>
              </g>
            </g>
          </g>
</svg>