<svg width="434" height="29" viewBox="0 0 434 29" fill="none" xmlns="http://www.w3.org/2000/svg">
<path d="M0.890908 26.5708C0.890908 27.4592 1.5098 28.0773 2.39945 28.0773H5.80336C6.15149 28.0773 6.57697 28 6.88641 27.6524C7.23454 27.3047 7.3119 26.8798 7.3119 26.5708V10.6952L17.4076 27.073C17.7944 27.7296 18.3359 28.0773 19.0321 28.0773H22.0879C22.8229 28.0773 23.3644 27.7296 23.7512 27.073L33.8468 10.6952V26.5708C33.8468 26.8798 33.9242 27.3047 34.2723 27.6524C34.5818 28 35.0073 28.0773 35.3554 28.0773H38.7593C39.1074 28.0773 39.5329 28 39.8423 27.6524C40.1905 27.3047 40.2678 26.8798 40.2678 26.5708V2.54489C40.2678 2.23588 40.1905 1.81099 39.8423 1.46336C39.5329 1.11571 39.1074 1.03845 38.7593 1.03845H33.5761C33.2666 1.03845 32.9959 1.11571 32.7251 1.27021C32.2996 1.46335 32.1062 1.77235 31.9902 2.04275L20.5794 20.5064L9.16855 2.04275C9.05251 1.77236 8.85911 1.46335 8.43362 1.27021C8.16286 1.11571 7.89209 1.03845 7.62133 1.03845H2.39943C1.50977 1.03845 0.890884 1.65648 0.890884 2.54489L0.890908 26.5708Z" fill="#3D3935"/>
<path d="M46.4181 1.03845C45.5284 1.03845 44.9096 1.6565 44.9096 2.54491V26.5708C44.9096 27.4593 45.5284 28.0773 46.4181 28.0773H49.822C50.1701 28.0773 50.5956 28 50.9051 27.6524C51.2532 27.3047 51.3305 26.8798 51.3305 26.5708V2.54491C51.3305 2.23589 51.2532 1.81099 50.9051 1.46336C50.5956 1.11571 50.1701 1.03845 49.822 1.03845H46.4181Z" fill="#3D3935"/>
<path d="M63.5923 0.922607C58.6025 0.922607 55.9722 3.39472 55.9722 8.37759V20.7768C55.9722 25.7597 58.7572 28.2318 63.5923 28.2318H82.8167C86.8394 28.2318 89.5084 26.4936 90.1273 22.4764C90.1273 22.3605 90.0499 22.3219 89.9339 22.3219H64.5593C63.5923 22.3219 63.0895 22.0901 62.8187 21.8198C62.548 21.6266 62.3932 21.1245 62.3932 20.3906V8.72524C62.3932 7.99132 62.548 7.48918 62.8187 7.29604C63.0895 7.02565 63.5923 6.83251 64.5593 6.83251H89.9339C90.1273 6.83251 90.166 6.75526 90.0886 6.63937C89.4697 2.62218 86.8394 0.922607 82.8167 0.922607H63.5923Z" fill="#3D3935"/>
<path d="M94.8463 26.5708C94.8463 27.4592 95.4652 28.0773 96.3549 28.0773H99.7588C100.107 28.0773 100.532 28 100.842 27.6524C101.19 27.3047 101.267 26.8798 101.267 26.5708V17.4935H121.265V26.5708C121.265 27.4592 121.884 28.0773 122.774 28.0773H126.178C127.067 28.0773 127.725 27.4979 127.725 26.5708V2.54489C127.725 2.19725 127.57 1.81099 127.299 1.46336C126.951 1.15434 126.526 1.03845 126.178 1.03845H122.774C121.884 1.03845 121.265 1.65648 121.265 2.54489V11.6222H101.267V2.54489C101.267 2.23588 101.19 1.81099 100.842 1.46336C100.532 1.11571 100.107 1.03845 99.7588 1.03845H96.3549C95.4652 1.03845 94.8463 1.65648 94.8463 2.54489V26.5708Z" fill="#3D3935"/>
<path d="M130.433 26.6867C130.433 27.1889 130.626 27.5752 131.051 27.8842C131.361 28 131.632 28.0773 131.864 28.0773H135.848C136.003 28.0773 136.273 28 136.66 27.8842C137.086 27.6138 137.318 27.3048 137.472 27.0344L139.6 23.7897L143.313 17.957L149.502 8.41619C149.618 8.30031 149.696 8.30031 149.812 8.41619L159.753 23.7897L161.068 25.7597L161.88 27.0344C161.996 27.2275 162.228 27.6138 162.692 27.8842C162.886 28 163.156 28.0773 163.466 28.0773H167.45C167.682 28.0773 167.953 28 168.262 27.8842C168.688 27.5751 168.881 27.1889 168.881 26.6867C168.843 26.4163 168.765 26.1459 168.61 25.9142L153.138 2.08138C152.79 1.46335 152.249 1.03845 151.514 1.03845H147.8C147.491 1.03845 147.22 1.11569 146.988 1.2702C146.562 1.54059 146.33 1.84961 146.214 2.04275L130.703 25.8756C130.587 26.1459 130.433 26.3777 130.433 26.6867Z" fill="#3D3935"/>
<path d="M171.589 26.6095C171.589 26.9185 171.705 27.3434 172.014 27.6524C172.053 27.7683 172.13 27.7683 172.169 27.8069C172.44 28.0001 172.749 28.0773 173.097 28.0773H201.296C201.605 28.0773 201.992 28.0387 202.301 27.7683L202.417 27.6524C202.727 27.3048 202.804 26.8799 202.804 26.5709V23.6738C202.804 23.4421 202.804 23.2876 202.765 23.2489C202.649 22.515 201.953 22.1674 201.296 22.1674H173.059C172.556 22.1674 172.285 22.3219 171.937 22.6695C171.744 22.9399 171.627 23.249 171.627 23.5966C171.589 23.6352 171.589 23.7897 171.589 24.0601L171.589 26.6095ZM171.628 2.42904C171.628 2.58355 171.589 2.73805 171.589 2.89256V5.48056C171.589 5.78958 171.666 6.21448 172.014 6.56211C172.13 6.60074 172.092 6.63937 172.208 6.678C172.478 6.94838 172.827 6.94838 173.097 6.94838H201.141C201.45 6.94838 201.876 6.87113 202.224 6.56211C202.572 6.21447 202.649 5.78957 202.649 5.44194V2.54492C202.649 2.50629 202.611 2.39042 202.572 2.12003C202.456 1.61789 202.263 1.46337 201.837 1.19298C201.644 1.0771 201.412 1.03848 201.141 1.03848H173.291C172.981 0.999846 172.517 1.0771 172.169 1.38612L171.976 1.54064C171.705 1.81103 171.666 2.15865 171.628 2.42904ZM171.589 16.2575C171.628 16.6051 171.782 16.8755 172.014 17.0686C172.053 17.1845 172.13 17.1845 172.169 17.2231C172.478 17.4935 172.827 17.4935 173.097 17.4935H173.562H200.754C201.682 17.4935 202.263 16.9141 202.263 15.9871V13.1287C202.263 12.8969 202.263 12.7424 202.224 12.7038C202.185 12.4334 201.953 12.0085 201.682 11.8926C201.412 11.6222 201.064 11.6222 200.793 11.6222H173.368C173.02 11.5836 172.556 11.6222 172.208 11.9313L172.014 12.0858C171.782 12.3562 171.666 12.6652 171.666 12.9356L171.589 13.3991L171.589 16.2575Z" fill="#3D3935"/>
<path d="M207.446 20.6223C207.446 25.4506 210.076 28.0773 214.911 28.0773H238.623C238.932 28.0773 239.357 28 239.706 27.6524C240.015 27.3047 240.131 26.8798 240.131 26.5708V23.6738C240.131 22.7854 239.512 22.1673 238.623 22.1673H215.84C214.911 22.1673 214.563 21.9742 214.292 21.7811C214.099 21.5879 213.906 21.1631 213.906 20.2746V2.54489C213.906 2.23588 213.828 1.81098 213.48 1.46334C213.171 1.11569 212.745 1.03845 212.397 1.03845H208.993C208.645 1.03845 208.219 1.15432 207.871 1.46334C207.601 1.81099 207.446 2.19726 207.446 2.54489L207.446 20.6223Z" fill="#3D3935"/>
<path d="M261.754 26.5708C261.754 27.4592 262.372 28.0773 263.262 28.0773H266.666C267.014 28.0773 267.44 28 267.749 27.6524C268.097 27.3047 268.175 26.8798 268.175 26.5708V17.4935H288.173V26.5708C288.173 27.4592 288.791 28.0773 289.681 28.0773H293.085C293.975 28.0773 294.632 27.4979 294.632 26.5708V2.54489C294.632 2.19725 294.477 1.81099 294.207 1.46336C293.859 1.15434 293.433 1.03845 293.085 1.03845H289.681C288.791 1.03845 288.173 1.65648 288.173 2.54489V11.6222H268.175V2.54489C268.175 2.23588 268.097 1.81099 267.749 1.46336C267.44 1.11571 267.014 1.03845 266.666 1.03845H263.262C262.372 1.03845 261.754 1.65648 261.754 2.54489V26.5708Z" fill="#3D3935"/>
<path d="M297.34 26.6867C297.34 27.1889 297.533 27.5752 297.959 27.8842C298.268 28 298.539 28.0773 298.771 28.0773H302.755C302.91 28.0773 303.181 28 303.567 27.8842C303.993 27.6138 304.225 27.3048 304.38 27.0344L306.507 23.7897L310.221 17.957L316.409 8.41619C316.525 8.30031 316.603 8.30031 316.719 8.41619L326.66 23.7897L327.975 25.7597L328.787 27.0344C328.903 27.2275 329.135 27.6138 329.6 27.8842C329.793 28 330.064 28.0773 330.373 28.0773H334.357C334.589 28.0773 334.86 28 335.17 27.8842C335.595 27.5751 335.788 27.1889 335.788 26.6867C335.75 26.4163 335.672 26.1459 335.518 25.9142L320.045 2.08138C319.697 1.46335 319.156 1.03845 318.421 1.03845H314.707C314.398 1.03845 314.127 1.11569 313.895 1.2702C313.47 1.54059 313.238 1.84961 313.122 2.04275L297.611 25.8756C297.495 26.1459 297.34 26.3777 297.34 26.6867Z" fill="#3D3935"/>
<path d="M326.815 1.84962C326.698 2.12001 326.699 2.35177 326.776 2.54491C326.815 2.89256 327.008 3.1243 327.201 3.31744C327.24 3.31744 330.489 6.94837 333.893 10.5407L340.624 17.8025V26.5708C340.624 27.4593 341.242 28.0773 342.132 28.0773H345.459C345.807 28.0773 346.232 28 346.542 27.6524C346.89 27.3048 346.967 26.8798 346.967 26.5708V17.8025L360.467 3.27882C360.621 3.12431 360.815 2.89256 360.854 2.54491C360.931 2.35177 360.931 2.12001 360.815 1.84962C360.699 1.57923 360.505 1.42473 360.351 1.30885C360.08 1.11571 359.809 1.03845 359.461 1.03845H355.477C354.587 1.03845 354.123 1.5406 353.814 1.84962L352.266 3.54921L348.824 7.25739L343.834 12.6265L333.816 1.88824C333.468 1.5406 333.003 1.03845 332.114 1.03845H328.13C327.549 1.03845 327.008 1.34748 326.815 1.84962Z" fill="#3D3935"/>
<path d="M363.677 26.6095C363.677 26.9185 363.793 27.3434 364.103 27.6524C364.141 27.7683 364.219 27.7683 364.257 27.8069C364.528 28.0001 364.838 28.0773 365.186 28.0773H393.384C393.693 28.0773 394.08 28.0387 394.39 27.7683L394.506 27.6524C394.815 27.3048 394.893 26.8799 394.893 26.5709V23.6738C394.893 23.4421 394.893 23.2876 394.854 23.2489C394.738 22.515 394.042 22.1674 393.384 22.1674H365.147C364.644 22.1674 364.373 22.3219 364.025 22.6695C363.832 22.9399 363.716 23.249 363.716 23.5966C363.677 23.6352 363.677 23.7897 363.677 24.0601L363.677 26.6095ZM363.716 2.42904C363.716 2.58355 363.677 2.73805 363.677 2.89256V5.48056C363.677 5.78958 363.755 6.21448 364.103 6.56211C364.219 6.60074 364.18 6.63937 364.296 6.678C364.567 6.94838 364.915 6.94838 365.186 6.94838H393.229C393.539 6.94838 393.964 6.87113 394.312 6.56211C394.66 6.21447 394.738 5.78957 394.738 5.44194V2.54492C394.738 2.50629 394.699 2.39042 394.66 2.12003C394.544 1.61789 394.351 1.46337 393.926 1.19298C393.732 1.0771 393.5 1.03848 393.229 1.03848H365.379C365.07 0.999846 364.606 1.0771 364.257 1.38612L364.064 1.54064C363.793 1.81103 363.755 2.15865 363.716 2.42904ZM363.677 16.2575C363.716 16.6051 363.871 16.8755 364.103 17.0686C364.141 17.1845 364.219 17.1845 364.257 17.2231C364.567 17.4935 364.915 17.4935 365.186 17.4935H365.65H392.842C393.771 17.4935 394.351 16.9141 394.351 15.9871V13.1287C394.351 12.8969 394.351 12.7424 394.312 12.7038C394.274 12.4334 394.042 12.0085 393.771 11.8926C393.5 11.6222 393.152 11.6222 392.881 11.6222H365.457C365.108 11.5836 364.644 11.6222 364.296 11.9313L364.103 12.0858C363.871 12.3562 363.755 12.6652 363.755 12.9356L363.677 13.3991V16.2575Z" fill="#3D3935"/>
<path d="M408.005 0.768066C402.706 0.768066 399.534 3.08569 399.534 8.60933C399.534 14.0171 402.706 16.4506 407.928 16.7596L424.213 17.6866C425.412 17.7253 425.953 18.0343 426.263 18.3433C426.572 18.6909 426.727 19.2703 426.727 20.0815C426.727 21.7811 425.992 22.1674 424.329 22.1674C420.925 22.206 417.792 22.206 414.697 22.206C409.553 22.206 403.712 22.2446 401.12 22.2446H399.689C399.573 22.2833 399.534 22.3219 399.534 22.4378C399.65 25.5665 402.203 28.0773 405.336 28.0773H424.638C430.015 28.0773 433.109 25.7597 433.109 20.1974C433.109 14.8283 429.86 12.3561 424.715 12.0858L408.431 11.1587C407.232 11.0428 406.69 10.8111 406.381 10.4634C406.033 10.1158 405.878 9.57501 405.878 8.76385C405.878 7.87543 406.071 7.45052 406.342 7.18013C406.613 6.90975 407.193 6.678 408.276 6.678H432.954C433.07 6.678 433.109 6.63936 433.109 6.52348V6.48486C433.109 3.27883 430.595 0.768082 427.384 0.768082L408.005 0.768066Z" fill="#3D3935"/>
</svg>
